PathFileType	4	(X/Y/Z)	C:/Users/beibeiliu/ov580/test_trc/User3\sequence.6_training_dense_left.trc
DataRate	CameraRate	NumFrames	NumMarkers	Units	OrigDataRate	OrigDataStartFrame	OrigNumFrames
120	120	23	19	mm	120	122	195
Frame#	Time	ThumbCMC			ThumbMCP			ThumbIP			ThumbTip			IndexMCP			IndexPIP			IndexTip			MiddleMCP			MiddlePIP			MiddleTip			RingMCP			RingPIP			RingTip			PinkyMCP			PinkyPIP			PinkyTip			BackHand1			BackHand2			BackHand3	
		X0	Y0	Z0	X1	Y1	Z1	X2	Y2	Z2	X3	Y3	Z3	X4	Y4	Z4	X5	Y5	Z5	X6	Y6	Z6	X7	Y7	Z7	X8	Y8	Z8	X9	Y9	Z9	X10	Y10	Z10	X11	Y11	Z11	X12	Y12	Z12	X13	Y13	Z13	X14	Y14	Z14	X15	Y15	Z15	X16	Y16	Z16	X17	Y17	Z17	X18	Y18	Z18	
121	1.00833	-225.453	-7.01789	-10.4941	-206.429	7.29429	-36.3846	-178.02	2.95101	-51.9925	-158.803	-8.26698	-42.3564	-185.679	-35.3905	-69.7276	-168.14	-10.175	-74.74	-179.009	3.79071	-47.6227	-169.869	-37.4622	-60.0325	-151.926	-11.3142	-52.8437	-174.124	-2.96399	-19.719	-154.785	-42.7648	-44.0926	-146.929	-16.1442	-35.7103	-172.341	-13.8951	-10.5133	-154.393	-55.4043	-30.6618	-140.053	-33.4349	-33.1722	-154.945	-20.4515	-7.70374	-196.762	-67.4884	-9.21252	-210.894	-61.2087	20.2812	-226.569	-48.0565	-7.14238	
122	1.01667	-234.87	-14.8578	-5.23252	-222.049	1.99326	-36.5423	-196.327	-0.0906321	-59.311	-174.205	-16.4808	-52.5568	-205.231	-43.1589	-73.784	-188.585	-19.2505	-84.8063	-190.338	-6.12149	-53.856	-189.607	-46.5363	-66.8836	-168.339	-21.4578	-64.9764	-185.098	-15.006	-28.034	-173.707	-52.2115	-50.5298	-158.823	-23.8654	-45.2395	-183.237	-19.7878	-19.3572	-167.68	-60.2509	-38.2579	-154.761	-32.7493	-38.4525	-168.236	-26.2213	-15.1777	-208.765	-72.3141	-7.99618	-218.596	-68.748	17.1784	-238.268	-53.0297	-9.47031	
123	1.025	-242.778	-16.1288	-4.67417	-234.169	-5.31088	-39.7658	-214.788	-10.0658	-60.0249	-189.565	-24.2531	-64.9441	-228.545	-52.3037	-72.33	-206.911	-37.6856	-93.9484	-200.671	-16.934	-69.0684	-203.097	-54.7163	-69.298	-182.605	-25.8498	-69.8011	-195.606	-18.9427	-35.1633	-189.66	-69.7018	-57.1233	-170.257	-46.7184	-63.9692	-179.747	-27.1709	-40.9273	-181.111	-70.9827	-39.5765	-166.412	-44.5501	-46.1584	-173.24	-33.8932	-21.2679	-223.335	-74.4138	-8.13064	-225.955	-70.8425	18.7654	-248.51	-51.5447	-3.73318	
124	1.03333	-254.547	-17.6234	-4.50174	-246.714	-5.96007	-33.3572	-228.772	-13.988	-62.6746	-207.467	-28.3682	-66.7408	-245.489	-57.8257	-73.1119	-225.186	-45.0614	-94.9148	-217.096	-22.6297	-72.794	-225.696	-63.2587	-75.258	-202.049	-42.0492	-83.5865	-201.256	-30.2027	-46.4403	-208.626	-75.4504	-57.3149	-186.735	-57.1407	-67.6034	-193.636	-32.7359	-43.3243	-201.217	-77.4689	-46.8661	-180.777	-61.3768	-54.1843	-185.302	-42.3588	-28.2794	-237.037	-80.5894	-9.46479	-238.173	-74.5214	20.3152	-260.934	-55.0208	-0.456732	
125	1.04167	-260.618	-18.0464	-3.17451	-255.107	-8.59252	-35.8212	-240.183	-17.6909	-61.9762	-219.477	-33.0767	-68.9044	-259.336	-58.5047	-74.795	-237.394	-48.9138	-94.4566	-226.791	-26.5491	-71.2866	-241.57	-68.7499	-72.7247	-216.075	-49.5233	-86.2795	-213.713	-35.9946	-46.8181	-224.486	-76.6487	-62.3175	-200.238	-61.5937	-69.3148	-207.992	-38.0019	-43.3065	-213.437	-84.994	-49.8357	-196.773	-68.0727	-58.3461	-195.743	-48.4525	-33.0689	-249.294	-80.5545	-11.1426	-251.423	-73.9779	22.51	-270.969	-52.3463	-1.87672	
126	1.05	-271.351	-16.7129	-16.7396	-262.838	-7.76426	-51.9348	-244.073	-27.2542	-70.0373	-227.982	-50.0632	-65.2812	-271.092	-61.9868	-74.5262	-245.072	-43.2218	-87.4051	-244.242	-32.5996	-53.5187	-257.474	-72.3412	-71.5767	-228.881	-50.4276	-74.2719	-238.656	-40.2864	-37.6826	-240.027	-80.1021	-60.9725	-217.708	-57.7473	-57.9158	-233.316	-46.543	-28.7397	-226.515	-88.1358	-49.761	-212.559	-63.7307	-49.0112	-218.313	-48.6493	-25.068	-267.102	-81.9222	-7.84311	-264.883	-70.9259	17.8972	-284.643	-52.4639	-3.38143	
127	1.05833	-271.286	-12.0072	-11.4445	-271.314	-7.17229	-46.482	-260.868	-20.9885	-68.8782	-248.193	-48.4317	-69.003	-279.546	-56.6968	-77.7287	-253.517	-47.1814	-90.3138	-244.094	-35.8862	-59.3097	-264.516	-71.1922	-73.393	-235.031	-56.5561	-70.914	-241.736	-50.0228	-35.4599	-255.837	-84.8419	-61.6871	-229.875	-72.2577	-57.7808	-237.407	-53.9666	-31.3072	-249.978	-97.8601	-48.3133	-230.455	-78.2624	-53.987	-235.398	-61.0176	-27.808	-284.854	-78.3156	-9.24038	-275.689	-69.6427	19.0833	-288.221	-45.7085	-2.94319	
128	1.06667	-272.457	-8.17078	-11.389	-267.452	-4.6798	-48.9375	-261.345	-25.5579	-69.5523	-255.381	-49.2475	-69.3845	-298.229	-45.9579	-72.3345	-269.802	-43.203	-87.9778	-259.814	-31.7718	-53.8959	-284.563	-64.9327	-71.7629	-253.017	-56.3759	-70.7914	-253.911	-43.1579	-36.711	-276.922	-81.1357	-59.0622	-248.215	-70.5606	-59.9981	-250.931	-56.1765	-29.3731	-274.253	-91.322	-46.7382	-248.174	-78.9765	-54.7151	-241.49	-70.0878	-26.8107	-297.907	-74.4903	-3.78413	-285.965	-67.7703	19.5676	-299.816	-35.9502	-1.57469	
129	1.075	-274.014	-7.20274	-12.6865	-264.719	-3.07583	-48.7113	-264.321	-27.1763	-69.5498	-261.12	-56.4285	-71.7639	-305.84	-33.6172	-72.1658	-274.872	-32.6851	-86.0663	-263.172	-32.998	-56.5559	-297.414	-57.2309	-70.9512	-266.768	-52.0539	-77.1991	-262.402	-41.9213	-38.969	-292.774	-73.9344	-60.1754	-262.114	-67.0059	-67.7241	-258.794	-53.3878	-35.5197	-286.336	-89.878	-52.7871	-261.161	-82.2302	-59.6716	-254.532	-65.6788	-31.8894	-306.316	-69.1273	-4.96573	-293.531	-62.4572	21.2193	-302.631	-31.0545	0.379276	
130	1.08333	-264.861	-9.01596	-2.30977	-262.69	-1.83833	-35.9119	-263.874	-8.93371	-66.0653	-266.982	-27.7402	-81.4715	-311.592	-19.7185	-63.0091	-296.253	-26.6495	-92.4428	-268.733	-26.0114	-73.576	-302.98	-40.9346	-67.6242	-269.216	-50.4077	-78.0353	-260.087	-43.6693	-42.5296	-295.684	-64.1887	-59.4083	-264.424	-66.4209	-62.2859	-259.386	-52.0571	-33.121	-293.052	-82.4658	-46.5128	-266.227	-74.4516	-50.8636	-267.705	-55.796	-25.6928	-311.144	-53.2287	-4.18705	-300.255	-50.3041	22.8535	-298.186	-18.8827	4.54221	
131	1.09167	-263.555	-6.04367	-1.77341	-256.336	3.13131	-34.5405	-261.662	-6.46761	-64.1116	-267.64	-26.7789	-78.4927	-298.724	-12.0216	-70.0348	-271.28	-20.5878	-85.232	-258.084	-25.0226	-57.4071	-304.914	-35.855	-70.882	-275.47	-41.3932	-84.1327	-262.134	-42.7025	-46.7669	-300.048	-52.1371	-60.2435	-271.655	-64.1086	-64.2206	-263.433	-49.5655	-32.0944	-297.165	-68.807	-51.0246	-269.64	-65.4793	-49.9991	-272.44	-53.9683	-21.8717	-317.594	-46.8934	-4.16462	-303.288	-48.4691	23.191	-296.388	-14.5648	5.66903	
132	1.1	-253.091	-5.80886	-8.68798	-248.919	3.90325	-42.1551	-261.411	-9.56788	-69.1928	-275.352	-32.321	-67.9557	-293.463	-0.833465	-73.7564	-274.716	-20.4361	-88.5959	-259.592	-28.9833	-58.1207	-302.664	-24.6364	-69.8264	-273.245	-41.3161	-76.3048	-268.157	-37.3765	-36.379	-305.238	-43.8432	-60.9936	-275.48	-56.6285	-59.8089	-272.363	-47.6993	-27.0016	-305.807	-57.5506	-53.9076	-279.614	-66.1087	-45.7595	-280.588	-53.9108	-18.7019	-314.97	-27.2479	-6.19578	-303.033	-36.9043	20.0574	-287.922	-4.65356	3.51002	
133	1.10833	-248.221	-2.32766	-9.9181	-238.787	2.02702	-41.7449	-253.994	-12.4637	-70.5389	-269.944	-31.8699	-72.085	-287.934	-0.401188	-71.5999	-263.151	-17.7535	-82.2105	-256.405	-23.4733	-49.4338	-296.864	-14.9705	-71.8219	-273.605	-37.374	-75.6797	-267.139	-35.1567	-37.5101	-303.562	-32.2621	-63.1114	-279.727	-52.1113	-64.916	-272.137	-41.7696	-29.8081	-312.188	-51.1566	-53.2908	-284.023	-58.931	-54.3535	-279.245	-48.152	-23.7633	-313.687	-23.0943	-6.98018	-299.356	-28.0165	15.8143	-286.58	-1.60703	-1.22878	
134	1.11667	-237.734	-3.56269	-6.92662	-228.57	1.40397	-36.3644	-238.976	-7.62341	-64.1158	-258.47	-23.6185	-75.5915	-275.561	9.50676	-71.6577	-259.689	-17.4822	-85.0168	-252.053	-24.0549	-53.7037	-286.419	-10.7105	-73.6708	-266.033	-33.5852	-75.8264	-261.636	-32.8753	-37.3576	-300.43	-20.7224	-63.4288	-280.757	-46.3583	-67.9368	-270.821	-42.6292	-35.5361	-314.553	-38.6282	-55.2594	-287.013	-49.3248	-61.0038	-278.659	-40.061	-33.2857	-307.461	-11.7279	-7.60866	-299.645	-20.917	18.8452	-276.367	3.01175	-1.20871	
135	1.125	-232.883	-5.94718	-8.45388	-224.328	-4.04597	-41.9738	-233.82	-9.78061	-74.8906	-257.537	-26.1947	-83.138	-272.188	9.50957	-69.2279	-252.324	-15.3051	-85.3018	-245.701	-23.5631	-53.3936	-281.409	-6.86934	-69.3739	-262.599	-35.6851	-72.1396	-254.76	-30.8617	-34.7609	-291.534	-22.467	-61.835	-268.702	-46.6473	-58.6601	-263.57	-38.1905	-28.4963	-300.909	-35.4962	-53.7601	-277.963	-50.3403	-50.266	-272.743	-35.9505	-23.0633	-299.594	-5.95208	-7.38834	-288.182	-14.1063	17.8915	-266.911	9.1583	1.16474	
136	1.13333	-226.291	-4.16496	-7.23945	-211.424	-3.26842	-39.9521	-220.069	-8.92533	-68.9218	-242.882	-22.9195	-80.7821	-258.014	11.3222	-71.9859	-240.306	-14.1098	-83.5211	-238.999	-23.836	-50.4686	-273.583	-7.11048	-68.6605	-254.099	-32.8108	-71.5195	-249.989	-28.115	-30.7176	-283.496	-20.402	-62.0469	-263.805	-43.5022	-59.8454	-255.806	-36.6271	-28.1345	-294.559	-27.8999	-52.5929	-272.339	-48.1365	-51.4717	-266.433	-40.7056	-23.328	-289.872	1.09002	-7.97683	-285.956	-12.2048	18.1745	-259.145	9.49343	1.48164	
137	1.14167	-214.174	-7.13995	-2.92708	-200.771	-7.95055	-38.1102	-209.921	-18.3318	-67.3878	-237.853	-28.3571	-70.3997	-235.659	8.3514	-76.8093	-225.474	-21.9212	-83.7013	-221.407	-25.1257	-50.7531	-254.26	-9.6448	-74.9338	-242.467	-35.4114	-71.7873	-243.498	-31.4099	-31.8531	-267.795	-20.0422	-65.6638	-253.431	-44.394	-57.1783	-250.05	-34.5067	-26.1868	-283.078	-24.7716	-57.5786	-265.688	-45.4477	-52.4414	-259.18	-33.98	-21.1561	-276.304	8.45451	-15.9916	-275.071	-2.11489	18.6972	-245.638	12.4652	0.607442	
138	1.15	-199.591	-3.17103	-6.84171	-189.507	-7.10333	-39.4857	-201.572	-17.4595	-66.4727	-227.119	-28.0117	-66.3085	-226.107	2.56417	-72.1837	-214.589	-26.5764	-69.9082	-210.422	-24.572	-39.6103	-238.777	-4.96944	-73.2452	-230.3	-35.0493	-68.0533	-233.544	-26.5972	-26.3302	-255.467	-17.4243	-62.836	-237.816	-42.1105	-52.9484	-234.467	-30.1596	-24.3669	-268.023	-26.0736	-57.7306	-250.38	-42.1287	-50.0672	-245.703	-27.1616	-22.9835	-268.604	10.101	-14.1197	-266.015	-2.2328	15.082	-234.217	17.5684	-1.34189	
139	1.15833	-188.413	-3.42261	1.52528	-174.395	-10.9812	-25.5518	-189.248	-19.4429	-53.7427	-210.858	-30.2371	-59.9847	-206.41	10.9289	-67.8717	-195.863	-18.9289	-75.5633	-198.803	-27.4584	-44.3711	-226.167	-3.50834	-70.4899	-211.479	-34.0849	-66.0422	-221.393	-29.9742	-27.9181	-240.35	-17.132	-64.1147	-227.494	-43.3946	-52.854	-226.039	-30.882	-20.8112	-255.398	-26.6631	-54.4436	-237.072	-44.5767	-43.7828	-233.147	-24.7057	-18.5674	-254.202	9.91	-13.5024	-252.257	1.69229	20.4149	-220.91	16.8159	3.53855	
140	1.16667	-179.422	-4.67815	8.949	-160.635	-9.12132	-17.4956	-165.998	-16.9815	-50.4242	-191.111	-25.4236	-59.3233	-186.089	12.021	-64.4697	-174.918	-19.8513	-69.2146	-183.778	-26.3722	-39.8871	-202.895	1.33475	-66.9415	-195.637	-31.6645	-63.5031	-203.71	-28.9626	-27.0219	-219.109	-11.3883	-59.5589	-209.89	-39.5709	-44.9588	-210.169	-28.8097	-17.4027	-234.5	-17.8553	-56.636	-223.49	-38.0314	-47.1392	-221.371	-27.7429	-16.8543	-235.649	18.7288	-13.8736	-239.658	6.92374	15.1922	-209.194	19.7675	5.33871	
141	1.175	-164.572	1.29197	14.849	-145.917	-5.82242	-17.248	-154.724	-15.7065	-47.2065	-179.741	-23.3195	-53.2837	-166.95	13.8331	-61.2681	-162.045	-18.3688	-64.5861	-168.619	-22.9704	-31.9869	-188.82	0.0848167	-60.3418	-179.467	-31.7646	-51.0134	-189.196	-17.9885	-12.7018	-204.899	-7.9513	-54.6764	-194.984	-35.5212	-42.7819	-197.122	-19.435	-10.2742	-217.833	-16.552	-50.0841	-208.26	-37.0369	-36.4259	-210.856	-20.0458	-8.36715	-223.545	19.9747	-11.334	-227.462	15.5328	17.5935	-195.031	23.3841	10.4441	
142	1.18333	-151.469	1.75659	24.1636	-132.754	-0.415375	0.85157	-138.006	-3.30409	-30.4503	-157.534	-9.36143	-44.7569	-153.8	22.7863	-52.4736	-143.433	-8.02441	-60.3633	-154.945	-17.6537	-32.3383	-172.024	9.31877	-52.7455	-166.84	-24.4623	-46.0464	-179.9	-14.647	-9.46343	-190.136	-0.123989	-50.4238	-185.986	-27.6154	-37.1668	-187.988	-18.27	-6.13382	-205.22	-2.40966	-45.4562	-198.384	-26.6497	-34.363	-196.352	-17.2677	-5.81629	-207.184	29.8007	-0.632724	-214.937	19.4822	24.5701	-179.754	27.2197	21.6529	
143	1.19167	-142.9	8.62065	33.8365	-123.693	6.12506	9.03519	-125.806	3.37969	-23.8114	-149.989	-4.41652	-35.229	-139.175	41.2943	-35.6108	-123.917	18.5274	-56.5593	-134.853	-4.78813	-34.6809	-159.953	19.8943	-47.1448	-148.024	-9.58219	-50.8522	-156.394	-12.0603	-9.25587	-178.531	12.2203	-45.4337	-169.557	-17.6086	-44.7203	-171.87	-19.192	-10.7679	-193.653	5.77174	-37.9895	-183.773	-21.7757	-35.7895	-192.336	-20.1656	-5.65334	-200.999	34.1971	3.01032	-204.795	25.3252	35.463	-169.977	33.0744	30.697	
